<svg width="100" height="100" viewBox="0 0 100 100" fill="none" xmlns="http://www.w3.org/2000/svg">
<circle cx="50" cy="50" r="50" fill="#FFD748"/>
<path d="M51.7321 32C50.9622 33.3333 49.0377 33.3333 48.2679 32L41.3397 20C40.5699 18.6667 41.5322 17 43.0718 17L56.9282 17C58.4678 17 59.4301 18.6667 58.6603 20L51.7321 32Z" fill="#555252"/>
<path d="M18.8971 44.624C17.9435 43.4152 18.6559 41.6275 20.1795 41.406L26.0628 40.5506C27.5864 40.3291 28.7784 41.84 28.2084 43.2702L26.0076 48.7929C25.4376 50.2231 23.5331 50.5 22.5795 49.2913L18.8971 44.624Z" fill="#555252"/>
<path d="M80.4145 44.624C81.3682 43.4152 80.6557 41.6275 79.1321 41.406L73.2489 40.5506C71.7253 40.3291 70.5332 41.84 71.1032 43.2702L73.3041 48.7929C73.874 50.2231 75.7785 50.5 76.7321 49.2913L80.4145 44.624Z" fill="#555252"/>
<path d="M32.8971 78.624C31.9435 77.4153 32.6559 75.6275 34.1795 75.406L40.0628 74.5506C41.5864 74.3291 42.7784 75.84 42.2084 77.2702L40.0076 82.7929C39.4376 84.2231 37.5331 84.5 36.5795 83.2913L32.8971 78.624Z" fill="#555252"/>
<path d="M67.4145 78.624C68.3682 77.4153 67.6557 75.6275 66.1321 75.406L60.2489 74.5506C58.7253 74.3291 57.5332 75.84 58.1032 77.2702L60.3041 82.7929C60.874 84.2231 62.7785 84.5 63.7321 83.2913L67.4145 78.624Z" fill="#555252"/>
<rect x="33" y="38" width="33" height="33" rx="4" fill="#555252"/>
</svg>
